<svg width="34" height="32" viewBox="0 0 34 32" fill="none" xmlns="http://www.w3.org/2000/svg">
<path opacity="0.2" d="M17.2711 32C26.3471 32 33.7047 24.8366 33.7047 16C33.7047 7.16344 26.3471 0 17.2711 0C8.195 0 0.837402 7.16344 0.837402 16C0.837402 24.8366 8.195 32 17.2711 32Z" fill="#3D3E60"/>
<path d="M21.0731 6.84167H13.4691C10.3788 6.84167 7.86475 9.28943 7.86475 12.2982V19.7016C7.86475 22.7103 10.3788 25.1582 13.4692 25.1582H21.0732C24.1633 25.1582 26.6776 22.7104 26.6776 19.7016V12.2982C26.6775 9.28943 24.1634 6.84167 21.0731 6.84167ZM24.785 19.7017C24.785 21.6976 23.1232 23.3156 21.0732 23.3156H13.4692C11.4192 23.3156 9.75736 21.6976 9.75736 19.7017V12.2982C9.75736 10.3024 11.4192 8.6843 13.4692 8.6843H21.0732C23.1232 8.6843 24.785 10.3024 24.785 12.2982V19.7017Z" fill="white"/>
<path d="M17.271 11.2626C14.5881 11.2626 12.4053 13.3878 12.4053 15.9999C12.4053 18.6118 14.5881 20.7371 17.271 20.7371C19.9539 20.7371 22.1366 18.612 22.1366 15.9999C22.1366 13.3878 19.9539 11.2626 17.271 11.2626ZM17.271 18.8944C15.629 18.8944 14.2978 17.5986 14.2978 15.9999C14.2978 14.4012 15.629 13.1052 17.271 13.1052C18.913 13.1052 20.244 14.4011 20.244 15.9999C20.244 17.5986 18.913 18.8944 17.271 18.8944Z" fill="white"/>
</svg>
