<svg version="1.2" xmlns="http://www.w3.org/2000/svg" viewBox="0 0 296 296" width="296" height="296">
	<title>tshirt-1-svg</title>
	<style>
		.s0 { fill: #12a1df } 
	</style>
	<g id="Layer">
		<path id="Layer" class="s0" d="m119.9 23.9c7.6 2.1 17.3 3.3 27.9 3.3 10.6 0 20.2-1.2 27.8-3.3-4 12-15 20.2-27.8 20.2-12.8 0-23.9-8.2-27.9-20.2z"/>
		<path id="Layer" class="s0" d="m294.8 64.1l-24.5 48.2c-1.1 2.3-3.4 3.7-5.9 3.7q-1 0-1.9-0.3l-27.2-8v161.9c0 3.7-3 6.7-6.7 6.7h-161.7c-3.7 0-6.7-3-6.7-6.7v-161.9l-27.2 8q-0.9 0.3-1.9 0.3c-2.4 0-4.8-1.4-5.9-3.7l-24.5-48.2c-0.8-1.7-0.9-3.5-0.3-5.3 0.6-1.7 1.8-3.1 3.5-3.8l56.3-26c12-4.1 24.2-7.3 36.6-9.7q0.6-0.1 1.2-0.1c3.1 0 5.8 2.1 6.5 5.2 4.5 19.8 22.1 34.7 43.3 34.7 21.2 0 38.7-14.9 43.2-34.7 0.7-3.1 3.4-5.2 6.5-5.2q0.6 0 1.3 0.1c12.3 2.4 24.5 5.6 36.5 9.7l56.3 26c1.7 0.7 2.9 2.1 3.6 3.8 0.5 1.8 0.4 3.6-0.4 5.3z"/>
	</g>
	<g id="Layer">
	</g>
	<g id="Layer">
	</g>
	<g id="Layer">
	</g>
	<g id="Layer">
	</g>
	<g id="Layer">
	</g>
	<g id="Layer">
	</g>
	<g id="Layer">
	</g>
	<g id="Layer">
	</g>
	<g id="Layer">
	</g>
	<g id="Layer">
	</g>
	<g id="Layer">
	</g>
	<g id="Layer">
	</g>
	<g id="Layer">
	</g>
	<g id="Layer">
	</g>
	<g id="Layer">
	</g>
</svg>