<svg width="33" height="32" viewBox="0 0 33 32" fill="none" xmlns="http://www.w3.org/2000/svg">
<path opacity="0.2" d="M16.5364 32C25.6125 32 32.9701 24.8366 32.9701 16C32.9701 7.16344 25.6125 0 16.5364 0C7.46038 0 0.102783 7.16344 0.102783 16C0.102783 24.8366 7.46038 32 16.5364 32Z" fill="#3D3E60"/>
<path d="M26.6023 11.4988C25.8981 11.8028 25.1405 12.0084 24.346 12.1003C25.1572 11.6271 25.7797 10.8784 26.0735 9.98483C25.3145 10.4232 24.4735 10.7412 23.5791 10.9126C22.8626 10.1697 21.8417 9.70532 20.7112 9.70532C18.5422 9.70532 16.7831 11.418 16.7831 13.5298C16.7831 13.8295 16.818 14.1213 16.8853 14.4014C13.6208 14.2419 10.7262 12.7195 8.78866 10.405C8.4506 10.9697 8.25667 11.6271 8.25667 12.3279C8.25667 13.6544 8.95065 14.8255 10.0041 15.5111C9.36048 15.4915 8.75438 15.3195 8.22503 15.0323C8.22474 15.0485 8.22474 15.0648 8.22474 15.0808C8.22474 16.9338 9.57931 18.4794 11.3759 18.8305C11.0467 18.9183 10.6989 18.9648 10.3413 18.9648C10.0876 18.9648 9.84179 18.9411 9.60216 18.8966C10.1019 20.4157 11.5523 21.5215 13.2716 21.5526C11.927 22.5785 10.2335 23.1897 8.3926 23.1897C8.07622 23.1897 7.76277 23.1717 7.45605 23.1361C9.19351 24.2216 11.2588 24.8545 13.4769 24.8545C20.7021 24.8545 24.6533 19.027 24.6533 13.9727C24.6533 13.807 24.6495 13.6419 24.6419 13.4781C25.41 12.9391 26.0759 12.2657 26.6023 11.4988Z" fill="#F1F2F2"/>
</svg>
